<?xml version="1.0" encoding="UTF-8" standalone="no"?>
<!-- Created with Inkscape (http://www.inkscape.org/) -->

<svg
   width="133.78378mm"
   height="131.03278mm"
   viewBox="0 0 133.78378 131.03278"
   version="1.1"
   id="svg1"
   inkscape:version="1.3.2 (091e20e, 2023-11-25, custom)"
   sodipodi:docname="Autor.svg"
   inkscape:export-filename="Autor.png"
   inkscape:export-xdpi="96"
   inkscape:export-ydpi="96"
   xmlns:inkscape="http://www.inkscape.org/namespaces/inkscape"
   xmlns:sodipodi="http://sodipodi.sourceforge.net/DTD/sodipodi-0.dtd"
   xmlns="http://www.w3.org/2000/svg"
   xmlns:svg="http://www.w3.org/2000/svg">
  <sodipodi:namedview
     id="namedview1"
     pagecolor="#ffffff"
     bordercolor="#999999"
     borderopacity="1"
     inkscape:showpageshadow="2"
     inkscape:pageopacity="0"
     inkscape:pagecheckerboard="0"
     inkscape:deskcolor="#d1d1d1"
     inkscape:document-units="mm"
     inkscape:zoom="1.3843855"
     inkscape:cx="257.51497"
     inkscape:cy="251.01389"
     inkscape:window-width="1920"
     inkscape:window-height="991"
     inkscape:window-x="-9"
     inkscape:window-y="-9"
     inkscape:window-maximized="1"
     inkscape:current-layer="g2" />
  <defs
     id="defs1" />
  <g
     inkscape:label="Fondo"
     inkscape:groupmode="layer"
     id="layer1"
     transform="matrix(1.0060606,0,0,1.0643087,-47.804657,-68.047087)">
    <ellipse
       style="fill:#000000;stroke-width:0.276462"
       id="path1"
       cx="114.00561"
       cy="125.49317"
       rx="66.48893"
       ry="61.557693" />
  </g>
  <g
     inkscape:label="Exterior"
     inkscape:groupmode="layer"
     id="g1"
     transform="matrix(1.0060606,0,0,1.0643087,-47.804657,-68.047087)">
    <ellipse
       style="fill:#ff9955;stroke-width:0.248176"
       id="ellipse1"
       cx="114.00279"
       cy="125.71579"
       rx="60.219967"
       ry="54.76936" />
    <path
       style="fill:#000000;fill-opacity:1;stroke-width:0.255692"
       d="m 102.19386,119.14996 c 0.40291,-0.0215 0.68843,0.19935 1.06198,0.27138 0.33995,0.0656 0.70474,0.0147 1.04862,0.0631 1.8238,0.25666 3.66146,0.41022 5.51026,0.41022 0.87172,0 1.71327,-0.15008 2.58481,-0.18302 1.44273,-0.0545 2.93049,-0.17237 4.34142,-0.49858 0.86059,-0.19897 1.71254,-0.46521 2.5581,-0.71317 0.0541,-0.0159 0.71646,-0.37357 0.75474,-0.26506 0.15791,0.44764 -0.6349,1.48715 -0.8015,1.91859 -0.36902,0.95567 -1.01547,1.71696 -1.50947,2.6065 -0.77737,1.39978 -1.5089,2.82349 -2.28426,4.22216 -0.22831,0.41187 -0.51081,0.77398 -0.70798,1.20544 -0.18114,0.39636 -0.28822,0.81298 -0.4809,1.20542 -0.33925,0.691 -0.7591,1.33622 -1.1488,2.00064 -0.21865,0.37278 -0.45583,1.26883 -0.9284,1.46419 -0.75292,0.31125 -2.23679,-0.74405 -2.71839,-1.19912 -0.33163,-0.31335 -0.59556,-0.67188 -0.91504,-0.99085 -0.42274,-0.42206 -0.90222,-0.78588 -1.28239,-1.24961 -0.30556,-0.37272 -0.50741,-0.7991 -0.76142,-1.19912 -0.23484,-0.36984 -0.55895,-0.70778 -0.80149,-1.07921 -1.27318,-1.94975 -2.53643,-3.89406 -3.5466,-5.97666 -0.0297,-0.0613 -0.68381,-1.48954 -0.46754,-1.65983 0.15872,-0.12499 0.33383,-0.2304 0.49425,-0.35343 z"
       id="path31" />
    <rect
       style="fill:#000000;fill-opacity:1;stroke-width:0.255692"
       id="rect33"
       width="19.149813"
       height="16.260912"
       x="132.76437"
       y="139.10617" />
    <rect
       style="fill:#000000;fill-opacity:1;stroke-width:0.282793"
       id="rect34"
       width="14.822172"
       height="7.056623"
       x="134.6955"
       y="136.24261" />
    <path
       style="fill:#000000;fill-opacity:1;stroke-width:0.255692"
       d="m 142.02061,132.10357 c -0.0553,0.58631 -1.45983,3.2316 -1.08202,3.6226 0.29528,0.30559 0.87266,0.15322 1.25567,0.13254 0.20842,-0.0113 0.43144,0.0527 0.6412,0.0189 0.16536,-0.0266 0.27379,-0.14922 0.4475,-0.1704 0.0601,-0.007 0.18158,0.0631 0.26048,0.0631 0.007,0 0.15329,0.0114 0.1603,0 0.52159,-0.8449 0.68163,-1.97892 1.15548,-2.89682 0.0507,-0.0983 0.0492,-0.28001 0.13359,-0.35974 0.15933,-0.15055 0.44282,-0.11327 0.60779,-0.34711 0.27057,-0.38349 0.71063,-0.62629 0.94844,-1.05396 0.63394,-1.14006 0.76449,-2.50285 1.14213,-3.72358 0.11439,-0.36979 0.35898,-0.69468 0.46085,-1.06659 0.51732,-1.88863 1.02995,-3.80985 1.30243,-5.74946 0.20008,-1.42422 0.18306,-2.89034 0.24713,-4.32314 0.0663,-1.48336 0.59752,-3.3415 0.4141,-4.77754 -0.0521,-0.40796 -0.25272,-0.7481 -0.30056,-1.15494 -0.0156,-0.13236 -0.35782,0.10356 -0.58108,0.35974 -0.44188,0.507 -0.74891,1.11339 -1.12209,1.66614 -0.25674,0.38028 -0.57978,0.70533 -0.85493,1.0729 -0.30813,0.41163 -0.42896,0.93116 -0.69462,1.36952 -0.46507,0.76738 -0.94405,1.49974 -1.34918,2.29726 -0.96602,1.90167 -1.50248,3.97379 -2.23082,5.96404 -0.23795,0.65021 -0.55836,1.27282 -0.77478,1.93121 -0.15635,0.47564 -0.22897,0.96849 -0.34731,1.45156 -0.14839,0.60574 -0.37389,1.18942 -0.44082,1.8113 -0.0394,0.36586 -0.005,0.72669 -0.0267,1.09183 -0.0242,0.40696 -0.0362,0.81136 -0.0534,1.21806 -0.0358,0.84544 0.03,0.8972 0.68127,1.55254 z"
       id="path34" />
    <path
       style="fill:#000000;fill-opacity:1;stroke-width:0.255692"
       d="m 117.06569,153.33113 c 0.11493,-0.2466 0.22986,-0.49321 0.34478,-0.73981"
       id="path45" />
    <path
       style="fill:#000000;fill-opacity:1;stroke-width:0.255692"
       d="m 98.799447,122.56456 c 0.201124,-0.10634 0.402248,-0.21267 0.603369,-0.31901"
       id="path49" />
    <path
       style="fill:#000000;fill-opacity:1;stroke-width:0.255692"
       d="m 111.06793,135.949 c -0.99763,-0.30931 -1.68352,-1.02636 -2.39911,-1.71039 -0.62425,-0.59672 -1.29639,-1.16389 -1.91784,-1.7511 -0.55688,-0.5262 -0.94433,-1.22828 -1.4366,-1.80541 -0.52586,-0.61652 -1.29714,-1.16682 -1.74545,-1.82577 -0.60545,-0.88992 -1.00167,-1.97027 -1.52279,-2.90494 -0.26564,-0.47645 -0.59261,-0.92855 -0.83322,-1.41854 -0.24447,-0.49784 -0.36951,-1.03729 -0.55309,-1.55427 -0.30687,-0.86422 -0.61969,-1.75591 -0.840402,-2.64703 -0.09817,-0.39634 -0.04303,-0.87545 -0.258587,-1.20134 -0.587871,-0.88878 -3.446635,-0.20172 -4.237941,0.10181 -1.387083,0.53205 -1.850665,1.81618 -2.183617,3.07462 -0.165784,0.62661 -0.388112,1.23975 -0.495622,1.88007 -0.245643,1.46299 -0.10618,2.97083 -0.03592,4.43885 0.07024,1.46745 0.134611,2.93565 0.294501,4.39814 0.358242,3.27674 1.124464,6.52801 1.810104,9.75327 0.457651,2.15279 0.776339,4.31931 1.163639,6.48181 0.134769,0.75249 0.322322,1.49927 0.445343,2.25337 0.116152,0.71199 0.07685,1.42997 0.122109,2.14477 0.03551,0.5609 0.215157,1.10476 0.258587,1.66287 0.03947,0.50721 -0.04468,1.46865 0.502807,1.77147 0.917836,0.50767 2.768603,0.34992 3.799779,0.40724 1.74847,0.0972 3.49469,0.14832 5.24356,0.24434 3.48315,0.19123 6.94973,0.11086 10.43682,0.0814 0.90027,-0.008 1.80028,0.0665 2.7008,0.0339 2.25186,-0.0814 4.51022,-0.16509 6.75915,-0.30543 1.11661,-0.0697 2.23995,0.1718 3.35444,0.11539 0.24948,-0.0126 0.45998,-0.13131 0.68956,-0.20362 0.94042,-0.2962 0.78225,-0.787 0.86196,-1.68324 0.0777,-0.87412 0.0531,-1.71338 -0.0215,-2.58594 -0.0732,-0.85535 -0.003,-1.71064 0,-2.56557 0.0112,-2.86994 0.21155,-5.73558 0.22985,-8.60623 0.0155,-2.42637 -0.20395,-4.84745 -0.30886,-7.26914 -0.17084,-3.94322 0.001,-7.76598 -1.58025,-11.51795 -0.19401,-0.46025 -0.51822,-0.86803 -0.7614,-1.30315 -0.54995,-0.98404 -0.95356,-1.86624 -2.09023,-2.36196 -0.63576,-0.27726 -3.68617,-1.23577 -4.23076,-0.87555 -0.42775,0.28293 -1.37921,2.3815 -1.63053,2.84385 -1.10703,2.03654 -2.01552,4.12564 -3.03839,6.19675 -0.47148,0.95466 -1.04701,1.86468 -1.52279,2.81671 -0.43787,0.87618 -0.91114,1.68101 -1.4294,2.51807 -0.60378,0.97518 -1.14541,1.94874 -2.16207,2.59951 -0.21772,0.13937 -0.58152,0.0137 -0.81886,0.0815 -0.20802,0.0594 -0.41182,0.13122 -0.61773,0.19683 z"
       id="path50" />
    <path
       style="fill:#000000;fill-opacity:1;stroke-width:0.255692"
       d="m 97.053991,119.57817 c 0.131687,-0.14932 0.553028,-0.32348 0.395063,-0.44796 -0.157965,-0.12448 -0.591632,0.50511 -0.395063,0.44796 0.308466,-0.0897 0.498699,-0.38927 0.768576,-0.55656 0.07645,-0.0474 0.113265,0.0184 0.179575,0 0.430379,-0.11961 1.19671,-0.25133 1.522785,0.19683 0.680383,0.93514 1.040093,1.97499 1.515603,3.00675 0.30271,0.65682 0.67909,1.28835 0.98406,1.94794 0.38225,0.82672 0.62812,1.71561 1.01998,2.53843 0.17566,0.36884 0.18056,0.79785 0.3807,1.15383 0.79866,1.42055 1.88324,2.70866 2.77262,4.07914 0.48476,0.74698 1.04831,1.47142 1.65926,2.13119 0.57657,0.62263 1.15137,1.12387 1.55152,1.88007 0.0713,0.13466 0.81813,1.28957 0.38069,1.28957 -1.24543,0 -3.07033,-2.28762 -3.77105,-3.04068 -0.33318,-0.35807 -0.7444,-0.64563 -1.08462,-0.99773 -0.47468,-0.49125 -0.96138,-1.062 -1.36476,-1.60857 -0.63717,-0.86335 -1.0425,-1.90268 -1.60898,-2.80992 -0.48134,-0.77089 -1.04195,-1.42412 -1.41504,-2.26016 -0.28731,-0.64378 -0.44228,-1.32159 -0.675201,-1.98187 -0.358165,-1.0153 -0.856152,-1.95889 -1.278565,-2.94566 -0.165258,-0.38605 -0.324253,-0.8038 -0.560271,-1.16062 -0.193094,-0.29193 -0.757204,-0.66017 -0.976882,-0.86198 z"
       id="path51" />
    <path
       style="fill:#000000;fill-opacity:1;stroke-width:0.255692"
       d="m 101.04053,124.84507 c 0.16042,0.0747 0.32672,0.13895 0.48126,0.22398 0.0973,0.0536 0.15603,0.18504 0.2514,0.25112 0.33455,0.23183 0.49609,0.0101 0.9266,0.48869 0.2659,0.29559 0.37371,0.75872 0.56027,1.09953 0.27135,0.4957 0.5333,0.74956 0.77576,1.28958 0.10353,0.23058 0.39961,0.35714 0.55309,0.55655 0.33354,0.43336 0.63132,0.90343 0.96251,1.34387 0.49021,0.65193 0.83423,1.40757 1.31448,2.07011 0.62091,0.8566 1.456,1.38976 2.26263,2.06333 0.18482,0.15433 0.3311,0.32755 0.53872,0.46153 0.28508,0.18396 2.42661,1.57261 2.19799,2.09726 -0.15783,0.36217 -2.03762,-0.10991 -2.43503,-0.21719 -2.39012,-0.64528 -4.62177,-3.86904 -5.8972,-5.72844 -0.39928,-0.5821 -0.78646,-1.27542 -1.03434,-1.92758 -0.17524,-0.46104 -0.24556,-0.96643 -0.3807,-1.43889 -0.25983,-0.90843 -0.59074,-1.81365 -1.07744,-2.63345 z"
       id="path52" />
    <path
       style="fill:#000000;fill-opacity:1;stroke-width:0.255692"
       d="m 109.775,135.01915 c 0.41221,0.33399 0.65282,0.44135 1.12054,0.45474 0.44489,0.0127 0.92739,0.13191 1.37912,0.0543 0.21844,-0.0375 1.33984,-0.57542 1.50842,-0.50904 0.54248,0.21358 0.0366,0.77141 -0.27295,0.92985 -0.63576,0.3254 -1.4092,0.13468 -2.07587,0.0679 -0.24116,-0.0242 -0.47966,0.0662 -0.69675,-0.0679 -0.34853,-0.21533 -0.71712,-0.66577 -0.96251,-0.92985 z"
       id="path53" />
    <path
       style="fill:#000000;fill-opacity:1;stroke-width:0.255692"
       d="m 97.449054,119.15057 c -0.566848,-0.10663 -0.989866,0.27956 -1.522785,0.38687 -0.539439,0.10863 -1.546602,0.29659 -2.004043,0.59728 -0.195867,0.12875 -0.351962,0.31194 -0.553088,0.44117 -0.409748,0.26328 -0.760003,0.43022 -1.14209,0.76696 -0.23583,0.20784 -0.350467,0.47002 -0.553087,0.69909 -0.31269,0.3535 -0.159159,0.089 -0.517172,0.46153 -0.356948,0.37144 -0.668167,0.8516 -0.94815,1.276 -0.384278,0.58249 -0.659052,1.23373 -0.933784,1.86649 -0.436967,1.00644 0.271608,-0.73671 -0.624916,1.18098 -0.303708,0.64964 -0.357615,1.41189 -0.553087,2.09047 -0.124742,0.43305 -0.355239,0.83591 -0.466891,1.27601 -0.275739,1.08685 -0.248138,2.29074 -0.330417,3.4004 -0.215815,2.91058 -0.18398,5.81954 -0.06465,8.73519 0.03008,0.73503 0.198586,1.44804 0.237038,2.1787 0.05931,1.12703 -0.04739,2.26173 0.02154,3.38684 0.0615,1.00382 0.13367,2.00967 0.201124,3.01353 0.08248,1.22758 0.668727,3.29762 1.070259,4.54745 0.67835,2.11147 2.37961,1.75112 4.324136,1.75112 0.644495,0 1.770471,0.0819 2.183617,-0.48869 0.457028,-0.63116 0.366933,-2.00784 0.531539,-2.75562 0.178012,-0.80867 0.253316,-1.68061 0.488439,-2.47055 0.137239,-0.46108 0.395063,-0.95011 0.395063,-1.43211"
       id="path54" />
    <path
       style="fill:#000000;fill-opacity:1;stroke-width:0.255692"
       d="m 122.96586,118.96328 c 0.9668,-0.13637 1.88762,-0.36265 2.88036,-0.29185 0.31757,0.0226 0.59331,0.19655 0.90505,0.25791 0.69404,0.13663 1.17792,0.11949 1.8963,0.32579 0.39216,0.11262 0.95319,0.11417 1.31448,0.319 0.32011,0.18149 0.56062,0.46703 0.86914,0.66515 0.79954,0.51345 1.71759,1.2246 2.27699,1.99545 0.29023,0.39993 0.43172,0.87917 0.68957,1.29637 0.29686,0.48031 0.70749,0.90353 1.00561,1.38459 0.30362,0.48992 0.45336,1.07812 0.66083,1.60858 0.24896,0.63654 0.55587,1.24928 0.76139,1.90043 0.23834,0.7551 0.27415,1.53243 0.48126,2.2873 0.28685,1.04547 0.54855,2.25392 0.61774,3.33254 2.5e-4,0.004 0.0584,0.64848 0.007,0.67872 -0.45087,0.26626 -1.7345,0.16978 -2.26982,0.22398 -0.29134,0.0295 -0.63536,0.17862 -0.89787,0.29864 -0.95792,0.43797 -0.49881,1.79258 -0.78294,2.46377 -0.0139,0.0329 -1.07111,0.0624 -1.12054,0.0679 -1.47461,0.16393 -1.54403,0.65367 -2.01841,1.93436"
       id="path55" />
    <path
       style="fill:#000000;fill-opacity:1;stroke-width:0.255692"
       d="m 122.45901,118.9902 c 0.0862,-0.0713 0.33398,-0.13232 0.25859,-0.2138 -0.0754,-0.0815 -0.35047,0.27841 -0.25859,0.2138 0.25598,-0.18 0.52592,-0.4593 0.844,-0.56334 0.12222,-0.04 0.29943,-0.0144 0.42738,-0.0373 0.20576,-0.0369 0.45131,-0.12896 0.66442,-0.12896 0.28915,0 0.58319,0.006 0.87274,0.0102 0.18229,0.003 0.35701,0.0671 0.53512,0.0713 0.11296,0.003 0.21974,-0.0439 0.3376,-0.0407 0.55279,0.0149 1.07402,0.11123 1.61617,0.19004 0.35761,0.052 0.74515,0.0462 1.0954,0.12895 0.16603,0.0392 0.32074,0.12604 0.48485,0.17308 0.44863,0.1286 0.93631,0.23083 1.33243,0.48868 0.1474,0.096 0.25738,0.23839 0.39866,0.34276 0.39194,0.28955 0.80967,0.62011 1.13849,0.97397 0.35657,0.38372 0.61585,0.86016 0.92301,1.27939 0.12451,0.16994 0.27006,0.32165 0.38429,0.49886 0.16562,0.25694 0.22771,0.55478 0.3807,0.81787 0.43795,0.75316 0.94638,1.51354 1.26061,2.32463 0.10742,0.27728 0.18224,0.56286 0.28372,0.84162 0.22876,0.62835 0.41268,1.24035 0.54232,1.89024 0.0699,0.35035 0.236,0.67036 0.2945,1.02149 0.0662,0.3976 -0.0753,0.90758 -0.24782,1.26921 -0.068,0.1426 -0.25358,0.43959 -0.43097,0.49547 -0.44312,0.13957 -1.06866,-0.16128 -1.40068,-0.40724 -0.31588,-0.23401 -0.53915,-0.59491 -0.77935,-0.89252 -0.33059,-0.40961 -0.67431,-0.80593 -0.97688,-1.23528 -0.23299,-0.33062 -0.43507,-0.68158 -0.68956,-0.99772 -0.57391,-0.71294 -1.28579,-1.33135 -1.89271,-2.01921 -0.26216,-0.29711 -0.81392,-0.99456 -1.14209,-1.34387 -0.65876,-0.7012 -0.261,-0.26648 -0.86554,-0.77714 -0.58805,-0.49672 -1.12137,-0.99848 -1.73828,-1.46944 -0.37501,-0.28629 -0.7963,-0.51281 -1.16723,-0.80429 -0.25898,-0.20351 -0.47769,-0.45307 -0.73266,-0.66175 -0.94294,-0.77178 0.65814,0.58316 -0.67161,-0.52602 -0.15181,-0.12663 -0.26247,-0.30987 -0.42379,-0.4242 -0.35651,-0.25265 -0.26856,-0.0966 -0.65724,-0.48868 z"
       id="path56" />
    <path
       style="fill:#000000;fill-opacity:1;stroke-width:0.255692"
       d="m 122.07472,119.22436 c 0.34817,-0.49277 0.54739,-0.69058 1.17801,-0.638 0.0565,0.005 0.29031,0.13752 0.30168,0.12217 0.1566,-0.21139 -0.32871,-0.21719 -0.43098,-0.21719 -0.6901,0 -0.75839,0.15302 -1.04871,0.73302 z"
       id="path57" />
  </g>
  <g
     inkscape:label="Dibujo"
     inkscape:groupmode="layer"
     id="g2"
     transform="matrix(1.0060606,0,0,1.0643087,-47.804657,-68.047087)">
    <ellipse
       style="fill:#000000;stroke-width:0.226252"
       id="path3"
       cx="110.90167"
       cy="100.51505"
       rx="17.567379"
       ry="16.365772" />
  </g>
</svg>
